{"title":"[18 + Only] Jawani Ki Khel - Hindi - 1CD DVD RIP - 700mb","uid":5337635,"size":734013440,"categoryP":"porn","categoryS":"movies","magnet":"?xt=urn:btih:9738653efd474cfb6e60fc8dd688e18ef713d3cf&amp;dn=%5B18+%2B+Only%5D+Jawani+Ki+Khel+-+Hindi+-+1CD+DVD+RIP+-+700mb&amp;tr=udp%3A%2F%2Ftracker.openbittorrent.com%3A80&amp;tr=udp%3A%2F%2Fopen.demonii.com%3A1337&amp;tr=udp%3A%2F%2Ftracker.coppersurfer.tk%3A6969&amp;tr=udp%3A%2F%2Fexodus.desync.com%3A6969","seeders":8,"leechers":2,"uploader":"aman786","files":1,"time":1265369226,"description":"Technical Specification\nGeneral\nComplete name : Jawani Ki Khel\nFormat : AVI\nFormat/Info : Audio Video Interleave\nFile size : 700 MiB\nDuration : 1h 14mn\nOverall bit rate : 1 308 Kbps\nWriting application : VirtualDubMod 1.5.4.1 (build 2178/release)\nWriting library : VirtualDubMod build 2178/release\n\nVideo\nID : 0\nFormat : MPEG-4 Visual\nFormat profile : Advanced Simple@L5\nFormat settings, BVOP : Yes\nFormat settings, QPel : No\nFormat settings, GMC : No warppoints\nFormat settings, Matrix : Custom\nCodec ID : XVID\nCodec ID/Hint : XviD\nDuration : 1h 14mn\nBit rate : 995 Kbps\nWidth : 608 pixels\nHeight : 352 pixels\nDisplay aspect ratio : 16:9\nFrame rate : 25.000 fps\nResolution : 8 bits\nColorimetry : 4:2:0\nScan type : Progressive\nBits/(Pixel*Frame) : 0.186\nStream size : 533 MiB (76%)\nWriting library : XviD 1.2.1 (UTC 2008-12-04)\n\nAudio\nID : 1\nFormat : MPEG Audio\nFormat version : Version 1\nFormat profile : Layer 3\nMode : Joint stereo\nFormat_Settings_ModeExtension : MS Stereo\nCodec ID : 55\nCodec ID/Hint : MP3\nDuration : 1h 14mn\nBit rate mode : Variable\nBit rate : 300 Kbps\nChannel(s) : 2 channels\nSampling rate : 48.0 KHz\nStream size : 160 MiB (23%)\nAlignment : Aligned on interleaves\nInterleave, duration : 24 ms (0.60 video frame)\nInterleave, preload duration : 499 ms\nWriting library : LAME3.98r\nEncoding settings : -m j -V 4 -q 2 -lowpass 20.5 --abr\n\n\nSource: - 1 MINI DVD RIP","torrent":{"xt":"urn:btih:9738653efd474cfb6e60fc8dd688e18ef713d3cf","amp;dn":"%5B18+%2B+Only%5D+Jawani+Ki+Khel+-+Hindi+-+1CD+DVD+RIP+-+700mb","amp;tr":["udp%3A%2F%2Ftracker.openbittorrent.com%3A80","udp%3A%2F%2Fopen.demonii.com%3A1337","udp%3A%2F%2Ftracker.coppersurfer.tk%3A6969","udp%3A%2F%2Fexodus.desync.com%3A6969"],"infoHash":"9738653efd474cfb6e60fc8dd688e18ef713d3cf","infoHashBuffer":{"type":"Buffer","data":[151,56,101,62,253,71,76,251,110,96,252,141,214,136,225,142,247,19,211,207]},"announce":[],"urlList":[]}}